# xmcd CD database file
#
# Track frame offsets:
#	150
#	14534
#	27924
#	43659
#	58666
#	78759
#	97538
#	111068
#	125248
#	141495
#	161653
#	175927
#	190281
#	209563
#	231447
#	252374
#	271699
#	289316
#	307287
#	327120
#
# Disc length: 4614 seconds
#
# Revision: 1
# Processed by: cddbd v1.5.2PL0 Copyright (c) Steve Scherf et al.
# Submitted via: CDex 1.81
#
DISCID=28120414
DTITLE=Various Artist - TSP Country and Americana Vol 157
DYEAR=2016
DGENRE=Country
TTITLE0=Michael J S - Heaven In Denim
TTITLE1=The Walker Avenue Gang - Bad Man Road
TTITLE2=Mary Alice and Judith Stone (vocals Mari Alice and Matt Mayes) - Whiskey Woman
TTITLE3=The Whetstone Mountain Boys - Mercy and Grace
TTITLE4=The Flat Mountain Boys - Midnight In Richfield
TTITLE5=Spencer Kelly (demo by Mike Lusk) - Forever You And I
TTITLE6=Mary Alice and Judith Stone (vocals Matt Mayes and Dave Swick) - Hard Drinkin' Buddy
TTITLE7=Kelly Manu - He's Alive
TTITLE8=Spencer Kelly (demo by Mike Lusk) - These Times Are Right
TTITLE9=Scott Dawson - Bittersweet Saturday
TTITLE10=J D Strait (D Fletcher) - It's All Been Said Before
TTITLE11=Art Carter - People Will Talk
TTITLE12=Mark Walsdorf (demo by Paramount Records) - Your Love
TTITLE13=Mark Walsdorf (demo by Paramount Records) - 12 Men In Black
TTITLE14=T J Doyle - Living In Our Dream
TTITLE15=Graham Murray - I Can Change
TTITLE16=Marc Goble - I Love Myself
TTITLE17=Brad Brossard - Let's Bring Back The Country
TTITLE18=T J Doyle - Nothing In My Way
TTITLE19=Les Hatley - The White Light
EXTD=YEAR: 2016
EXTT0=
EXTT1=
EXTT2=
EXTT3=
EXTT4=
EXTT5=
EXTT6=
EXTT7=
EXTT8=
EXTT9=
EXTT10=
EXTT11=
EXTT12=
EXTT13=
EXTT14=
EXTT15=
EXTT16=
EXTT17=
EXTT18=
EXTT19=
PLAYORDER=
